<?xml version="1.0" encoding="UTF-8"?>
<svg width="36px" height="36px" viewBox="0 0 36 36" version="1.1" xmlns="http://www.w3.org/2000/svg">
    <title>token-osc</title>
    <g id="token-osc" stroke="none" stroke-width="1" fill="none" fill-rule="evenodd">
        <path d="M18,36 C27.9411255,36 36,27.9411255 36,18 C36,8.0588745 27.9411255,0 18,0 C8.0588745,0 0,8.0588745 0,18 C0,27.9411255 8.0588745,36 18,36 Z" id="Ellipse-123" fill="#FFFFFF"></path>
        <g id="Group-591" transform="translate(6.000183, 12.001465)" fill="#214CD6">
            <path d="M5.99987841,0 C9.31351975,0 11.9997568,2.68623682 11.9997568,5.99987787 L11.9997568,5.99414062 L0,5.99414062 L0.00413838819,5.77494419 C0.122425757,2.56552267 2.76154709,0 5.99987841,0 Z" id="Subtract"></path>
            <path d="M24.0001831,6.01611328 C24.0001834,9.32401708 21.3139459,12.0102537 18.0003042,12.0102534 C14.6866626,12.0102532 12.0004255,9.32401612 12.0004258,6.01037507 L12.0004274,6.01611231 L24.0001831,6.01611328 Z" id="Subtract"></path>
        </g>
    </g>
</svg>
