<svg width="172" height="32" viewBox="0 0 172 32" xmlns="http://www.w3.org/2000/svg">
    <g fill="#214CD6" fill-rule="evenodd">
        <path d="M5.253 5.486a5.246 5.246 0 0 1 5.253 5.24v-.004H0l.004-.213a5.247 5.247 0 0 1 5.25-5.023zM21.013 10.74c0 2.89-2.352 5.236-5.253 5.236a5.246 5.246 0 0 1-5.253-5.24v.004h10.506z"/>
        <g>
            <path d="M60.28 5.766v9.923h2.489V5.766h-2.488zM73.313.062v15.63h-2.489V.062h2.489zM68.155.062v15.63h-2.488V.062h2.488zM42.38 7.505a2.09 2.09 0 0 0-.974.248c-.318.166-.477.435-.477.807 0 .303.131.523.394.661s.594.255.995.352l1.286.31c.47.096.906.255 1.307.475.4.207.732.496.995.869.263.372.394.882.394 1.53 0 .592-.131 1.095-.394 1.509-.249.4-.58.723-.995.971a4.3 4.3 0 0 1-1.37.538 7.264 7.264 0 0 1-1.534.165 6.61 6.61 0 0 1-2.136-.33c-.65-.221-1.23-.62-1.742-1.2l1.66-1.55c.317.358.656.655 1.016.889.373.22.822.33 1.347.33.18 0 .367-.02.56-.061.194-.042.374-.11.54-.207.165-.097.297-.214.394-.352a.855.855 0 0 0 .165-.516c0-.345-.13-.6-.394-.765a3.328 3.328 0 0 0-.995-.393c-.4-.11-.836-.207-1.306-.29a5.646 5.646 0 0 1-1.286-.434c-.401-.207-.733-.489-.996-.847-.262-.359-.394-.855-.394-1.489 0-.551.111-1.027.332-1.426.235-.414.54-.752.913-1.013a3.904 3.904 0 0 1 1.285-.58 5.77 5.77 0 0 1 3.442.165c.65.222 1.176.608 1.577 1.159l-1.66 1.488c-.483-.675-1.133-1.013-1.948-1.013z" fill-rule="nonzero"/>
            <path d="M61.494 3.238c.897 0 1.624-.725 1.624-1.619S62.391 0 61.494 0c-.897 0-1.624.725-1.624 1.619s.727 1.62 1.624 1.62zM80.607 5.485c2.898 0 5.247 2.342 5.247 5.23 0 2.889-2.35 5.23-5.247 5.23s-5.246-2.341-5.246-5.23c0-2.888 2.349-5.23 5.246-5.23zm0 2.39a2.844 2.844 0 0 0-2.848 2.84 2.844 2.844 0 0 0 2.848 2.84 2.844 2.844 0 0 0 2.848-2.84 2.844 2.844 0 0 0-2.848-2.84zM31.387 5.485c2.898 0 5.247 2.342 5.247 5.23 0 2.889-2.35 5.23-5.247 5.23s-5.246-2.341-5.246-5.23c0-2.888 2.349-5.23 5.246-5.23zm0 2.39a2.844 2.844 0 0 0-2.848 2.84 2.844 2.844 0 0 0 2.848 2.84 2.844 2.844 0 0 0 2.848-2.84 2.844 2.844 0 0 0-2.848-2.84zM53.055 5.476c2.514 0 4.62 1.725 5.165 4.041h-2.55a2.882 2.882 0 0 0-2.615-1.65c-1.59 0-2.878 1.271-2.878 2.84 0 1.567 1.288 2.839 2.878 2.839a2.88 2.88 0 0 0 2.665-1.763h2.525c-.503 2.372-2.635 4.154-5.19 4.154-2.928 0-5.303-2.342-5.303-5.23 0-2.89 2.375-5.231 5.303-5.231z"/>
        </g>
    </g>
</svg>
