<?xml version="1.0" encoding="UTF-8"?>
<svg width="36px" height="36px" viewBox="0 0 36 36" version="1.1" xmlns="http://www.w3.org/2000/svg">
    <title>token-dai</title>
    <g id="token-dai" stroke="none" stroke-width="1" fill="none" fill-rule="evenodd">
        <g transform="translate(0.000000, -0.000000)" fill-rule="nonzero">
            <path d="M18,0 C27.9420394,0 36,8.0595806 36,18 C36,27.9420394 27.9420394,36 18,36 C8.0595806,36 0,27.9412294 0,18 C0,8.0595806 8.0595806,0 18,0 Z" id="Path" fill="#F5AC37"></path>
            <path d="M18.6633966,19.2709027 L25.503105,19.2709027 C25.6489065,19.2709027 25.7177572,19.2709027 25.7282873,19.0797408 C25.7841778,18.3839438 25.7841778,17.6840968 25.7282873,16.9874899 C25.7282873,16.8522185 25.6610566,16.796328 25.5144451,16.796328 L11.902259,16.796328 C11.7337773,16.796328 11.6884169,16.8522185 11.6884169,17.0101701 L11.6884169,19.0125101 C11.6884169,19.2709027 11.6884169,19.2709027 11.9581496,19.2709027 L18.6633966,19.2709027 L18.6633966,19.2709027 Z M24.9644496,14.4562146 C24.9838898,14.4051841 24.9838898,14.3492935 24.9644496,14.299073 C24.8502385,14.0504005 24.7149671,13.8130681 24.5578256,13.5903159 C24.3213032,13.2096121 24.0426604,12.8588786 23.7251373,12.5437854 C23.5752858,12.3534335 23.401944,12.1825218 23.2075421,12.0375304 C22.2339123,11.2088921 21.0764108,10.6224462 19.8322383,10.3276033 C19.204482,10.1866619 18.5629556,10.1194312 17.9198092,10.1251013 L11.8787688,10.1251013 C11.7102871,10.1251013 11.6876069,10.1923319 11.6876069,10.3389434 L11.6876069,14.3322833 C11.6876069,14.500765 11.6876069,14.5461255 11.901449,14.5461255 L24.8834488,14.5461255 C24.8834488,14.5461255 24.99604,14.5234452 25.0187202,14.4562146 L24.9636396,14.4562146 L24.9644496,14.4562146 Z M24.9644496,21.6110161 C24.7732877,21.5899559 24.5805058,21.5899559 24.3893439,21.6110161 L11.9135991,21.6110161 C11.7451175,21.6110161 11.6884169,21.6110161 11.6884169,21.8361984 L11.6884169,25.7404374 C11.6884169,25.9202592 11.6884169,25.9656197 11.9135991,25.9656197 L17.6735667,25.9656197 C17.9489695,25.9866799 18.2243722,25.9672397 18.4941049,25.9097291 C19.3300333,25.8497885 20.1521915,25.6683467 20.9362794,25.3694537 C21.2214022,25.2706327 21.496805,25.1418414 21.7568176,24.9871299 L21.8353884,24.9871299 C23.1856719,24.2848528 24.2824228,23.1816218 24.9741697,21.8272883 C24.9741697,21.8272883 25.0527405,21.6571866 24.9644496,21.6126361 L24.9644496,21.6110161 Z M9.42768428,27.9898299 L9.42768428,27.9225992 L9.42768428,25.301413 L9.42768428,24.4128341 L9.42768428,21.7689677 C9.42768428,21.6223562 9.42768428,21.600486 9.24786248,21.600486 L6.80649806,21.600486 C6.67122671,21.600486 6.61533615,21.600486 6.61533615,21.4206642 L6.61533615,19.2830528 L9.22518225,19.2830528 C9.37098371,19.2830528 9.42768428,19.2830528 9.42768428,19.0918909 L9.42768428,16.9769598 C9.42768428,16.8416884 9.42768428,16.8084781 9.24786248,16.8084781 L6.80649806,16.8084781 C6.67122671,16.8084781 6.61533615,16.8084781 6.61533615,16.6286563 L6.61533615,14.6489965 C6.61533615,14.5250653 6.61533615,14.4918549 6.79515795,14.4918549 L9.21384214,14.4918549 C9.38232382,14.4918549 9.42768428,14.4918549 9.42768428,14.2780128 L9.42768428,8.21429214 C9.42768428,8.03447034 9.42768428,7.98910989 9.65286653,7.98910989 L18.0899109,7.98910989 C18.702277,8.01341013 19.3105931,8.08064081 19.9124291,8.19161192 C21.1525515,8.42084421 22.3440734,8.86391864 23.4335343,9.49653497 C24.1560616,9.92178922 24.8210782,10.4353344 25.4131941,11.0266403 C25.8586986,11.4891549 26.2604626,11.9897399 26.6168662,12.5227252 C26.9708397,13.0630006 27.2648726,13.6405364 27.495725,14.2439924 C27.5240752,14.401134 27.6747367,14.5072451 27.8318783,14.4805148 L29.8455585,14.4805148 C30.103951,14.4805148 30.103951,14.4805148 30.1152912,14.7283773 L30.1152912,16.5735757 C30.1152912,16.7533975 30.0480605,16.798758 29.8674287,16.798758 L28.3146431,16.798758 C28.1575016,16.798758 28.1121411,16.798758 28.1234812,17.00126 C28.1850419,17.6865269 28.1850419,18.3742237 28.1234812,19.0594906 C28.1234812,19.2506525 28.1234812,19.2733327 28.3381334,19.2733327 L30.1144811,19.2733327 C30.1930519,19.3745837 30.1144811,19.4758348 30.1144811,19.5778958 C30.1258213,19.7083071 30.1258213,19.8403384 30.1144811,19.9707497 L30.1144811,21.3323733 C30.1144811,21.5235352 30.0585906,21.5802358 29.8892989,21.5802358 L27.7630276,21.5802358 C27.6147961,21.5518855 27.4706147,21.6466565 27.4365944,21.7940779 C26.9303393,23.1103411 26.1203312,24.2905229 25.0738007,25.2366124 C24.6914769,25.5808658 24.2897129,25.904869 23.8701287,26.203762 C23.4197642,26.4629646 22.9815498,26.7326973 22.5198452,26.9465395 C21.6701467,27.3288633 20.7791378,27.6107461 19.8646386,27.7897579 C18.99631,27.9452795 18.1158312,28.0157502 17.2321123,28.0036 L9.42444424,28.0036 L9.42444424,27.9922599 L9.42768428,27.9898299 Z" id="Shape" fill="#FEFEFD"></path>
        </g>
    </g>
</svg>
