<?xml version="1.0" encoding="UTF-8"?>
<svg width="36px" height="36px" viewBox="0 0 36 36" version="1.1" xmlns="http://www.w3.org/2000/svg">
    <title>token-usdc</title>
    <g id="token-usdc" stroke="none" stroke-width="1" fill="none" fill-rule="evenodd">
        <g id="usd-coin-usdc-logo" fill-rule="nonzero">
            <path d="M18,36 C27.97506,36 36,27.97506 36,18 C36,8.02494 27.97506,0 18,0 C8.02494,0 0,8.02494 0,18 C0,27.97506 8.02494,36 18,36 Z" id="Path" fill="#2775CA"></path>
            <path d="M22.95,20.84994 C22.95,18.225 21.375,17.325 18.225,16.95006 C15.975,16.65 15.525,16.05006 15.525,14.99994 C15.525,13.94982 16.27506,13.275 17.775,13.275 C19.125,13.275 19.87506,13.725 20.25,14.85 C20.32506,15.075 20.55006,15.22494 20.77506,15.22494 L21.97494,15.22494 C22.275,15.22494 22.5,14.99994 22.5,14.70006 L22.5,14.625 C22.19994,12.97494 20.84994,11.7 19.125,11.55006 L19.125,9.75006 C19.125,9.45 18.9,9.225 18.52506,9.14994 L17.40006,9.14994 C17.1,9.14994 16.875,9.37494 16.79994,9.75006 L16.79994,11.475 C14.54994,11.77506 13.12506,13.275 13.12506,15.15006 C13.12506,17.62506 14.625,18.59994 17.775,18.97506 C19.87506,19.35 20.55006,19.8 20.55006,21.00006 C20.55006,22.20012 19.49994,23.02506 18.07506,23.02506 C16.12494,23.02506 15.44994,22.19994 15.22494,21.07494 C15.15006,20.77506 14.92506,20.62494 14.70006,20.62494 L13.42494,20.62494 C13.12506,20.62494 12.90006,20.84994 12.90006,21.15 L12.90006,21.22506 C13.19994,23.09994 14.4,24.44994 16.875,24.82506 L16.875,26.62506 C16.875,26.92494 17.1,27.14994 17.47494,27.225 L18.59994,27.225 C18.9,27.225 19.125,27 19.20006,26.62506 L19.20006,24.82506 C21.45006,24.44994 22.95,22.87494 22.95,20.84994 L22.95,20.84994 Z" id="Path" fill="#FFFFFF"></path>
            <path d="M14.175,28.72494 C8.325,26.62506 5.32494,20.10006 7.50006,14.32494 C8.62506,11.17494 11.10006,8.775 14.175,7.65 C14.47506,7.50006 14.625,7.27506 14.625,6.89994 L14.625,5.85 C14.625,5.54994 14.47506,5.32494 14.175,5.25006 C14.09994,5.25006 13.95,5.25006 13.87494,5.32494 C6.75,7.57494 2.84994,15.15006 5.09994,22.275 C6.44994,26.47494 9.675,29.7 13.87494,31.05 C14.175,31.19994 14.47506,31.05 14.54994,30.74994 C14.625,30.67506 14.625,30.6 14.625,30.45006 L14.625,29.39994 C14.625,29.17494 14.4,28.87506 14.175,28.72494 Z M22.12506,5.32494 C21.825,5.175 21.52494,5.32494 21.45006,5.625 C21.375,5.70006 21.375,5.77494 21.375,5.92506 L21.375,6.975 C21.375,7.27506 21.6,7.57494 21.825,7.72506 C27.675,9.82494 30.67506,16.34994 28.49994,22.12506 C27.37494,25.27506 24.89994,27.675 21.825,28.8 C21.52494,28.94994 21.375,29.17494 21.375,29.55006 L21.375,30.6 C21.375,30.90006 21.52494,31.12506 21.825,31.19994 C21.90006,31.19994 22.05,31.19994 22.12506,31.12506 C29.25,28.87506 33.15006,21.29994 30.90006,14.175 C29.55006,9.9 26.24994,6.67494 22.12506,5.32494 Z" id="Shape" fill="#FFFFFF"></path>
        </g>
    </g>
</svg>
