<?xml version="1.0" encoding="UTF-8"?>
<svg width="36px" height="36px" viewBox="0 0 36 36" version="1.1" xmlns="http://www.w3.org/2000/svg" xmlns:xlink="http://www.w3.org/1999/xlink">
    <title>token-usdo</title>
    <g id="token-usdo" stroke="none" stroke-width="1" fill="none" fill-rule="evenodd">
        <path d="M18,36 C27.9411255,36 36,27.9411255 36,18 C36,8.0588745 27.9411255,0 18,0 C8.0588745,0 0,8.0588745 0,18 C0,27.9411255 8.0588745,36 18,36 Z" id="Ellipse-123" fill="#FFFFFF"></path>
        <g id="TEST" transform="translate(5.214844, 14.072266)" fill="#214CD6" fill-rule="nonzero">
            <polygon id="Path" points="6.37011719 1.41259766 3.97460938 1.41259766 3.97460938 7.92773438 2.36328125 7.92773438 2.36328125 1.41259766 0 1.41259766 0 0.107421875 6.37011719 0.107421875"></polygon>
            <polygon id="Path" points="11.9936523 4.53857422 8.89990234 4.53857422 8.89990234 6.63330078 12.5307617 6.63330078 12.5307617 7.92773438 7.28857422 7.92773438 7.28857422 0.107421875 12.5200195 0.107421875 12.5200195 1.41259766 8.89990234 1.41259766 8.89990234 3.27636719 11.9936523 3.27636719"></polygon>
            <path d="M17.53125,5.87597656 C17.53125,5.57161458 17.4238281,5.33797201 17.2089844,5.17504883 C16.9941406,5.01212565 16.6074219,4.84025065 16.0488281,4.65942383 C15.4902344,4.47859701 15.0480143,4.30045573 14.722168,4.125 C13.8341471,3.64518229 13.3901367,2.99886068 13.3901367,2.18603516 C13.3901367,1.76350911 13.509196,1.38663737 13.7473145,1.05541992 C13.9854329,0.724202474 14.3273926,0.465494792 14.7731934,0.279296875 C15.2189941,0.0930989583 15.719401,0 16.2744141,0 C16.8330078,0 17.3307292,0.101155599 17.7675781,0.303466797 C18.2044271,0.505777995 18.5437012,0.791341146 18.7854004,1.16015625 C19.0270996,1.52897135 19.1479492,1.94791667 19.1479492,2.41699219 L17.5366211,2.41699219 C17.5366211,2.05891927 17.4238281,1.78051758 17.1982422,1.58178711 C16.9726562,1.38305664 16.6557617,1.28369141 16.2475586,1.28369141 C15.8536784,1.28369141 15.547526,1.36694336 15.3291016,1.53344727 C15.1106771,1.69995117 15.0014648,1.91927083 15.0014648,2.19140625 C15.0014648,2.44563802 15.1294759,2.65869141 15.385498,2.83056641 C15.6415202,3.00244141 16.0183919,3.16357422 16.5161133,3.31396484 C17.4327799,3.58968099 18.1005859,3.93164062 18.5195312,4.33984375 C18.9384766,4.74804688 19.1479492,5.25651042 19.1479492,5.86523438 C19.1479492,6.54199219 18.8919271,7.07283529 18.3798828,7.45776367 C17.8678385,7.84269206 17.1785482,8.03515625 16.3120117,8.03515625 C15.7104492,8.03515625 15.1625977,7.92504883 14.668457,7.70483398 C14.1743164,7.48461914 13.7974447,7.18294271 13.5378418,6.79980469 C13.2782389,6.41666667 13.1484375,5.97265625 13.1484375,5.46777344 L14.7651367,5.46777344 C14.7651367,6.33072917 15.2807617,6.76220703 16.3120117,6.76220703 C16.6951497,6.76220703 16.9941406,6.68432617 17.2089844,6.52856445 C17.4238281,6.37280273 17.53125,6.15527344 17.53125,5.87597656 Z" id="Path"></path>
            <polygon id="Path" points="26.125 1.41259766 23.7294922 1.41259766 23.7294922 7.92773438 22.1181641 7.92773438 22.1181641 1.41259766 19.7548828 1.41259766 19.7548828 0.107421875 26.125 0.107421875"></polygon>
        </g>
    </g>
</svg>