<?xml version="1.0" encoding="UTF-8"?>
<svg width="36px" height="36px" viewBox="0 0 36 36" version="1.1" xmlns="http://www.w3.org/2000/svg">
    <title>token-usdt</title>
    <g id="token-usdt" stroke="none" stroke-width="1" fill="none" fill-rule="evenodd">
        <g id="tether-seeklogo.com" fill-rule="nonzero">
            <path d="M18,0 C27.94068,0 36,8.05932 36,18 C36,27.94068 27.94032,36 18,36 C8.05968,36 0,27.94284 0,18 C0,8.05716 8.05824,0 18,0" id="Path" fill="#23A881"></path>
            <path d="M20.22156,15.60168 L20.22156,12.924 L26.3448,12.924 L26.3448,8.84412 L9.67104,8.84412 L9.67104,12.924 L15.795,12.924 L15.795,15.59952 C10.818,15.82812 7.0758,16.8138 7.0758,17.9946 C7.0758,19.1754 10.8198,20.16108 15.795,20.39112 L15.795,28.96812 L20.223,28.96812 L20.223,20.3904 C25.191,20.16108 28.92564,19.17612 28.92564,17.9964 C28.92564,16.81668 25.191,15.83172 20.223,15.6024 M20.223,19.66392 L20.223,19.66176 C20.09808,19.66968 19.4562,19.7082 18.027,19.7082 C16.88436,19.7082 16.08048,19.6758 15.79716,19.66104 L15.79716,19.66464 C11.40012,19.46988 8.118,18.70416 8.118,17.78796 C8.118,16.87176 11.40048,16.10712 15.79716,15.912 L15.79716,18.9018 C16.08516,18.9216 16.90884,18.9702 18.04572,18.9702 C19.4112,18.9702 20.09772,18.91332 20.22372,18.9018 L20.22372,15.912 C24.61212,16.10748 27.88668,16.87392 27.88668,17.78688 C27.88668,18.69984 24.61068,19.46664 20.22372,19.66212" id="Shape" fill="#FFFFFF"></path>
        </g>
    </g>
</svg>
