<?xml version="1.0" encoding="UTF-8"?>
<svg width="36px" height="36px" viewBox="0 0 36 36" version="1.1" xmlns="http://www.w3.org/2000/svg" xmlns:xlink="http://www.w3.org/1999/xlink">
    <title>token-wavax</title>
    <g id="token-wavax" stroke="none" stroke-width="1" fill="none" fill-rule="evenodd">
        <path d="M18,36 C27.9411255,36 36,27.9411255 36,18 C36,8.0588745 27.9411255,0 18,0 C8.0588745,0 0,8.0588745 0,18 C0,27.9411255 8.0588745,36 18,36 Z" id="Ellipse-123" fill="#FFFFFF"></path>
        <g id="avalanche-avax-logo">
            <rect id="Rectangle" fill="#FFFFFF" fill-rule="nonzero" x="6.86684421" y="6.15978695" width="22.2423435" height="20.229028"></rect>
            <path d="M36,18 C36,27.941225 27.941225,36 18,36 C8.05887084,36 0,27.941225 0,18 C0,8.05887084 8.05887084,0 18,0 C27.941225,0 36,8.05887084 36,18 Z M12.8993129,25.1630892 L9.40601864,25.1630892 C8.67197337,25.1630892 8.30938482,25.1630892 8.0883036,25.0216778 C7.84950999,24.8668442 7.70359254,24.6103862 7.68590413,24.3273236 C7.67262583,24.0665513 7.85394407,23.7480639 8.21653262,23.1113049 L16.8419121,7.90789614 C17.2089348,7.26229294 17.3946391,6.93949134 17.6289987,6.82010652 C17.8810466,6.6918775 18.1817497,6.6918775 18.4337976,6.82010652 C18.6681571,6.93949134 18.8538855,7.26229294 19.2208842,7.90789614 L20.9940879,11.003225 L21.0031238,11.01902 C21.3995313,11.7116245 21.6005513,12.0628522 21.6883222,12.4314807 C21.7855846,12.8338802 21.7855846,13.2583782 21.6883222,13.6607776 C21.5998802,14.0322104 21.4008975,14.3859787 20.998498,15.0890573 L16.4677949,23.0980506 L16.4560746,23.1185672 C16.0570546,23.8168762 15.8548362,24.1708123 15.5745779,24.4378162 C15.2694647,24.729747 14.9024421,24.9418642 14.5000426,25.0614647 C14.13302,25.1630892 13.7218003,25.1630892 12.8993129,25.1630892 Z M21.7210386,25.1630892 L26.7265246,25.1630892 C27.46498,25.1630892 27.8364847,25.1630892 28.0577097,25.0173635 C28.2964314,24.86253 28.4467111,24.601518 28.4601332,24.3186951 C28.4728362,24.0663116 28.2954727,23.7602397 27.9479361,23.1604874 C27.9359521,23.1400666 27.923968,23.1192863 27.9117443,23.0981465 L25.4044474,18.8089214 L25.3759254,18.7606258 C25.0235952,18.1648282 24.8457523,17.8639574 24.6173369,17.7476644 C24.3654328,17.6194115 24.0689481,17.6194115 23.81702,17.7476644 C23.5870706,17.8670493 23.4013662,18.1810067 23.0343435,18.8133316 L20.5359627,23.1025806 L20.5274061,23.1173449 C20.1616778,23.7486631 19.9788975,24.0641545 19.9920799,24.3230093 C20.0097683,24.6060719 20.1556858,24.8668442 20.3944554,25.0216778 C20.6111505,25.1630892 20.9825832,25.1630892 21.7210386,25.1630892 Z" id="Shape" fill="#E84142"></path>
        </g>
    </g>
</svg>