<?xml version="1.0" encoding="UTF-8"?>
<svg width="36px" height="36px" viewBox="0 0 36 36" version="1.1" xmlns="http://www.w3.org/2000/svg" xmlns:xlink="http://www.w3.org/1999/xlink">
    <title>token-wbnb</title>
    <g id="token-wbnb" stroke="none" stroke-width="1" fill="none" fill-rule="evenodd">
        <path d="M18,0 C27.9411255,0 36,8.0588745 36,18 C36,27.9411255 27.9411255,36 18,36 C8.0588745,36 0,27.9411255 0,18 C0,8.0588745 8.0588745,0 18,0 Z M23.245992,20.152224 L18,25.398 L12.756708,20.154384 L9.70128,23.20128 L18,31.5 L26.2971,23.203224 L26.298612,23.201604 L23.245992,20.152224 Z M18,14.902452 L15.711804,17.19 L15.448932,17.45298 L14.906772,17.995248 L14.902452,17.99946 L18,21.097548 L21.095928,18.00162 L21.09744,17.999892 L21.094632,17.99838 L21.095712,17.99838 L18,14.902452 Z M28.449108,14.950188 L25.398,18.001296 L28.449,21.052188 L31.5,18.00108 L28.449108,14.950188 Z M7.551108,14.94846 L4.5,18 L7.550892,21.05046 L10.602,17.999352 L7.551108,14.94846 Z M18,4.5 L9.7056,12.7944 L12.756492,15.8454 L18,10.602 L23.2461,15.847884 L26.2971,12.796884 L18,4.5 Z" id="Combined-Shape" fill="#F3BA2F"></path>
    </g>
</svg>