<?xml version="1.0" encoding="UTF-8"?>
<svg width="36px" height="36px" viewBox="0 0 36 36" version="1.1" xmlns="http://www.w3.org/2000/svg">
    <title>token-wbtc</title>
    <g id="token-wbtc" stroke="none" stroke-width="1" fill="none" fill-rule="evenodd">
        <circle id="Oval" fill="#FFFFFF" cx="18" cy="18" r="18"></circle>
        <g id="wrapped-bitcoin-wbtc-logo" fill-rule="nonzero">
            <path d="M29.3542004,7.55518906 L28.3657326,8.54365693 C33.2545848,13.8899648 33.2545848,22.0836751 28.3657326,27.429983 L29.3542004,28.4184509 C34.7933525,22.5186775 34.7933525,13.4318982 29.3542004,7.53212481 L29.3542004,7.55518906 Z" id="Shape" fill="#5A5564"></path>
            <path d="M8.56672118,7.64085628 C13.9130291,2.75200409 22.1067394,2.75200409 27.4530472,7.64085628 L28.4415151,6.65238841 C22.5417417,1.21323631 13.4549624,1.21323631 7.55518906,6.65238841 L8.56672118,7.64085628 Z" id="Shape-2" fill="#5A5564"></path>
            <path d="M7.64085628,27.4398677 C2.75802712,22.0950133 2.75802712,13.9082807 7.64085628,8.56342629 L6.65238841,7.57495842 C1.21323631,13.4747318 1.21323631,22.5615111 6.65238841,28.4612845 L7.64085628,27.4398677 Z" id="Shape-3" fill="#5A5564"></path>
            <path d="M27.4398677,28.352553 C22.0935598,33.2414052 13.8998495,33.2414052 8.55354161,28.352553 L7.56507374,29.3410209 C13.4648471,34.780173 22.5516264,34.780173 28.4513998,29.3410209 L27.4398677,28.352553 Z" id="Shape-4" fill="#5A5564"></path>
            <path d="M24.2405267,14.7018117 C24.0428331,12.6392088 22.2635909,11.9472813 20.0131791,11.7364081 L20.0131791,8.89621047 L18.2734756,8.89621047 L18.2734756,11.6836899 C17.8154855,11.6836899 17.3476107,11.6836899 16.8830308,11.6836899 L16.8830308,8.89621047 L15.156507,8.89621047 L15.156507,11.7561775 L11.6276767,11.7561775 L11.6276767,13.617792 C11.6276767,13.617792 12.9126849,13.5947277 12.8929155,13.617792 C13.3745006,13.5648127 13.8115265,13.9027794 13.8813834,14.3822071 L13.8813834,22.2108726 C13.8713821,22.3752183 13.7953214,22.5285281 13.6705103,22.6359138 C13.5480226,22.7453644 13.3861829,22.8001043 13.2224048,22.7874789 C13.2454691,22.8072483 11.957166,22.7874789 11.957166,22.7874789 L11.6276767,24.8665563 L15.123558,24.8665563 L15.123558,27.7726518 L16.8632615,27.7726518 L16.8632615,24.9093899 L18.2537063,24.9093899 L18.2537063,27.7594723 L19.9967046,27.7594723 L19.9967046,24.8863257 C22.9357491,24.7084015 24.9851725,23.983525 25.2421741,21.2322895 C25.4497524,19.0181214 24.4085662,18.0296536 22.7446453,17.6309715 C23.7561774,17.1334427 24.3822071,16.2108727 24.2405267,14.7018117 Z M21.8023059,20.8896206 C21.8023059,23.0510703 18.0988463,22.8039534 16.9192747,22.8039534 L16.9192747,18.968698 C18.0988463,18.9719929 21.8023059,18.632619 21.8023059,20.8896206 Z M20.9950572,15.4859963 C20.9950572,17.462932 17.9044476,17.2224048 16.9225696,17.2224048 L16.9225696,13.7364081 C17.9044476,13.7364081 20.9950572,13.4266882 20.9950572,15.4859963 Z" id="Shape-5" fill="#F09242"></path>
            <path d="M17.9967046,36 C8.05643727,35.9981797 -0.000606576211,27.9391689 0,17.9989014 C0.000606576211,8.05863392 8.05863392,0.000606576211 17.9989014,0 C27.9391689,-0.000606576211 35.9981797,8.05643727 36,17.9967046 C36.0008735,22.7717432 34.104384,27.3514596 30.7279218,30.7279218 C27.3514596,34.104384 22.7717432,36.0008735 17.9967046,36 Z M17.9967046,1.40361879 C8.83881582,1.41090159 1.41975808,8.83880754 1.42339468,17.9966985 C1.42703395,27.1545895 8.85199075,34.5766004 18.0098825,34.5766004 C27.1677742,34.5766004 34.5927337,27.1545956 34.5963763,17.9967046 C34.5981255,13.5942676 32.8495882,9.37173649 29.735977,6.25936126 C26.6223657,3.14698603 22.3991406,1.40012553 17.9967046,1.40361879 Z" id="Shape-6" fill="#282138"></path>
        </g>
    </g>
</svg>
