<?xml version="1.0" encoding="UTF-8"?>
<svg width="36px" height="36px" viewBox="0 0 36 36" version="1.1" xmlns="http://www.w3.org/2000/svg" xmlns:xlink="http://www.w3.org/1999/xlink">
    <title>token-wmatic</title>
    <g id="token-wmatic" stroke="none" stroke-width="1" fill="none" fill-rule="evenodd">
        <circle id="Oval" fill="#FFFFFF" cx="18" cy="18" r="18"></circle>
        <g id="polygon-matic-logo" transform="translate(6.000000, 7.000000)" fill="#8247E5" fill-rule="nonzero">
            <path d="M18.9295039,6.72403561 C18.4725849,6.46290801 17.8851175,6.46290801 17.3629243,6.72403561 L13.7075718,8.87833828 L11.227154,10.2492582 L7.63707572,12.4035608 C7.18015666,12.6646884 6.5926893,12.6646884 6.07049608,12.4035608 L3.26370757,10.7062315 C2.80678851,10.4451039 2.48041775,9.92284866 2.48041775,9.33531157 L2.48041775,6.07121662 C2.48041775,5.54896142 2.74151436,5.02670623 3.26370757,4.70029674 L6.07049608,3.06824926 C6.52741514,2.80712166 7.11488251,2.80712166 7.63707572,3.06824926 L10.4438642,4.76557864 C10.9007833,5.02670623 11.227154,5.54896142 11.227154,6.13649852 L11.227154,8.29080119 L13.7075718,6.85459941 L13.7075718,4.63501484 C13.7075718,4.11275964 13.4464752,3.59050445 12.924282,3.26409496 L7.70234987,0.195845697 C7.24543081,-0.0652818991 6.65796345,-0.0652818991 6.13577023,0.195845697 L0.783289817,3.32937685 C0.261096606,3.59050445 0,4.11275964 0,4.63501484 L0,10.7715134 C0,11.2937685 0.261096606,11.8160237 0.783289817,12.1424332 L6.07049608,15.2106825 C6.52741514,15.4718101 7.11488251,15.4718101 7.63707572,15.2106825 L11.227154,13.1216617 L13.7075718,11.6854599 L17.2976501,9.59643917 C17.7545692,9.33531157 18.3420366,9.33531157 18.8642298,9.59643917 L21.6710183,11.2284866 C22.1279373,11.4896142 22.4543081,12.0118694 22.4543081,12.5994065 L22.4543081,15.8635015 C22.4543081,16.3857567 22.1932115,16.9080119 21.6710183,17.2344214 L18.9295039,18.8664688 C18.4725849,19.1275964 17.8851175,19.1275964 17.3629243,18.8664688 L14.5561358,17.2344214 C14.0992167,16.9732938 13.772846,16.4510386 13.772846,15.8635015 L13.772846,13.7744807 L11.2924282,15.2106825 L11.2924282,17.3649852 C11.2924282,17.8872404 11.5535248,18.4094955 12.075718,18.735905 L17.3629243,21.8041543 C17.8198433,22.0652819 18.4073107,22.0652819 18.9295039,21.8041543 L24.2167102,18.735905 C24.6736292,18.4747774 25,17.9525223 25,17.3649852 L25,11.1632047 C25,10.6409496 24.7389034,10.1186944 24.2167102,9.79228487 L18.9295039,6.72403561 Z" id="Path"></path>
        </g>
    </g>
</svg>